# xmcd
#
# Track frame offsets:
#	150
#	9976
#	18694
#	29436
#	40238
#	50431
#	61111
#	73493
#	84012
#	94278
#	103599
#	113800
#	124282
#	135534
#	147439
#	160349
#	170270
#	181555
#	191435
#	203261
#	215216
#	226202
#	236651
#	248394
#	258099
#
# Disc length: 3585 seconds
# Revision: 0
# Processed by: cddbd v1.5.2PL0 Copyright (c) Steve Scherf et al.
# Submitted via: dBpowerAMP V12.0
#
DISCID=4d0dff19
DTITLE=Various Artist - Heavy Sugar - The Pure Essence Of New Orleans R&B
DYEAR=1958
DGENRE=Rhythm and Blues
TTITLE0=Little Richard - Hey-Hey-Hey-Hey
TTITLE1=John Fred and The Playboys - Shirley
TTITLE2=Huey Smith - Would You Believe, I Have A Cold
TTITLE3=Fats Domino - Telling Lies
TTITLE4=Smiley Lewis - Someday (You'll Want Me)
TTITLE5=Paul Gayten - Nervous Boogie
TTITLE6=Frankie Ford - It Must Be Jelly
TTITLE7=Joe Jones - A-Tisket A-Tasket
TTITLE8=Jimmy Beasley - I'm So Blue
TTITLE9=Ray Washington - I Know
TTITLE10=The Supremes - Honey, Honey
TTITLE11=Jimmy Clanton - Ship On A Stormy Sea
TTITLE12=Myles and Dupont - Loud Mouth Annie
TTITLE13=Shirley and Lee - That's What I'll Do
TTITLE14=Alberta Hall - Oh, How I Need Your Lovin'
TTITLE15=Oscar Wills - Flatfoot Sam
TTITLE16=Professor Longhair - Look What You're Doing To Me
TTITLE17=Bobby Mitchell - Try Rock And Roll
TTITLE18=Charles Brown - I'll Always Be In Love With You
TTITLE19=Lester Robertson - My Girl Across Town
TTITLE20=The Tropicals - Sweet Sixteen
TTITLE21=Roland Cook - I've Got A Girl
TTITLE22=Lee Allen and His Band - Tic Toc
TTITLE23=The Gondoliers - You Call Everybody Darling
TTITLE24=Etta James - Dance With Me Henry
EXTD=
EXTT0=
EXTT1=
EXTT2=
EXTT3=
EXTT4=
EXTT5=
EXTT6=
EXTT7=
EXTT8=
EXTT9=
EXTT10=
EXTT11=
EXTT12=
EXTT13=
EXTT14=
EXTT15=
EXTT16=
EXTT17=
EXTT18=
EXTT19=
EXTT20=
EXTT21=
EXTT22=
EXTT23=
EXTT24=
PLAYORDER=
